<?xml version="1.0" encoding="utf-8" standalone="no"?>
<!DOCTYPE svg PUBLIC "-//W3C//DTD SVG 1.1//EN"
  "http://www.w3.org/Graphics/SVG/1.1/DTD/svg11.dtd">
<svg height="450.543125pt" version="1.1" viewBox="0 0 1930.522813 450.543125" width="1930.522813pt" xmlns="http://www.w3.org/2000/svg" xmlns:xlink="http://www.w3.org/1999/xlink">
 <metadata>
  <rdf:RDF xmlns:cc="http://creativecommons.org/ns#" xmlns:dc="http://purl.org/dc/elements/1.1/" xmlns:rdf="http://www.w3.org/1999/02/22-rdf-syntax-ns#">
   <cc:Work>
    <dc:type rdf:resource="http://purl.org/dc/dcmitype/StillImage"/>
    <dc:date>2021-11-15T14:27:38.207242</dc:date>
    <dc:format>image/svg+xml</dc:format>
    <dc:creator>
     <cc:Agent>
      <dc:title>Matplotlib v3.4.3, https://matplotlib.org/</dc:title>
     </cc:Agent>
    </dc:creator>
   </cc:Work>
  </rdf:RDF>
 </metadata>
 <defs>
  <style type="text/css">*{stroke-linecap:butt;stroke-linejoin:round;}</style>
 </defs>
 <g id="figure_1">
  <g id="patch_1">
   <path d="M 0 450.543125
L 1930.522813 450.543125
L 1930.522813 0
L 0 0
z
" style="fill:#ffffff;"/>
  </g>
  <g id="axes_1">
   <g id="patch_2">
    <path d="M 123.584375 374.274375
L 1889.924375 374.274375
L 1889.924375 36.234375
L 123.584375 36.234375
z
" style="fill:#ffffff;"/>
   </g>
   <g id="matplotlib.axis_1">
    <g id="xtick_1">
     <g id="text_1">
      <!-- 0.60 -->
      <g style="fill:#ffffff;" transform="translate(90.185937 404.069687)scale(0.3 -0.3)">
       <defs>
        <path d="M 2034 4250
Q 1547 4250 1301 3770
Q 1056 3291 1056 2328
Q 1056 1369 1301 889
Q 1547 409 2034 409
Q 2525 409 2770 889
Q 3016 1369 3016 2328
Q 3016 3291 2770 3770
Q 2525 4250 2034 4250
z
M 2034 4750
Q 2819 4750 3233 4129
Q 3647 3509 3647 2328
Q 3647 1150 3233 529
Q 2819 -91 2034 -91
Q 1250 -91 836 529
Q 422 1150 422 2328
Q 422 3509 836 4129
Q 1250 4750 2034 4750
z
" id="DejaVuSans-30" transform="scale(0.015625)"/>
        <path d="M 684 794
L 1344 794
L 1344 0
L 684 0
L 684 794
z
" id="DejaVuSans-2e" transform="scale(0.015625)"/>
        <path d="M 2113 2584
Q 1688 2584 1439 2293
Q 1191 2003 1191 1497
Q 1191 994 1439 701
Q 1688 409 2113 409
Q 2538 409 2786 701
Q 3034 994 3034 1497
Q 3034 2003 2786 2293
Q 2538 2584 2113 2584
z
M 3366 4563
L 3366 3988
Q 3128 4100 2886 4159
Q 2644 4219 2406 4219
Q 1781 4219 1451 3797
Q 1122 3375 1075 2522
Q 1259 2794 1537 2939
Q 1816 3084 2150 3084
Q 2853 3084 3261 2657
Q 3669 2231 3669 1497
Q 3669 778 3244 343
Q 2819 -91 2113 -91
Q 1303 -91 875 529
Q 447 1150 447 2328
Q 447 3434 972 4092
Q 1497 4750 2381 4750
Q 2619 4750 2861 4703
Q 3103 4656 3366 4563
z
" id="DejaVuSans-36" transform="scale(0.015625)"/>
       </defs>
       <use xlink:href="#DejaVuSans-30"/>
       <use x="63.623047" xlink:href="#DejaVuSans-2e"/>
       <use x="95.410156" xlink:href="#DejaVuSans-36"/>
       <use x="159.033203" xlink:href="#DejaVuSans-30"/>
      </g>
     </g>
    </g>
    <g id="xtick_2">
     <g id="text_2">
      <!-- 0.65 -->
      <g style="fill:#ffffff;" transform="translate(310.978437 404.069687)scale(0.3 -0.3)">
       <defs>
        <path d="M 691 4666
L 3169 4666
L 3169 4134
L 1269 4134
L 1269 2991
Q 1406 3038 1543 3061
Q 1681 3084 1819 3084
Q 2600 3084 3056 2656
Q 3513 2228 3513 1497
Q 3513 744 3044 326
Q 2575 -91 1722 -91
Q 1428 -91 1123 -41
Q 819 9 494 109
L 494 744
Q 775 591 1075 516
Q 1375 441 1709 441
Q 2250 441 2565 725
Q 2881 1009 2881 1497
Q 2881 1984 2565 2268
Q 2250 2553 1709 2553
Q 1456 2553 1204 2497
Q 953 2441 691 2322
L 691 4666
z
" id="DejaVuSans-35" transform="scale(0.015625)"/>
       </defs>
       <use xlink:href="#DejaVuSans-30"/>
       <use x="63.623047" xlink:href="#DejaVuSans-2e"/>
       <use x="95.410156" xlink:href="#DejaVuSans-36"/>
       <use x="159.033203" xlink:href="#DejaVuSans-35"/>
      </g>
     </g>
    </g>
    <g id="xtick_3">
     <g id="text_3">
      <!-- 0.70 -->
      <g style="fill:#ffffff;" transform="translate(531.770937 404.069687)scale(0.3 -0.3)">
       <defs>
        <path d="M 525 4666
L 3525 4666
L 3525 4397
L 1831 0
L 1172 0
L 2766 4134
L 525 4134
L 525 4666
z
" id="DejaVuSans-37" transform="scale(0.015625)"/>
       </defs>
       <use xlink:href="#DejaVuSans-30"/>
       <use x="63.623047" xlink:href="#DejaVuSans-2e"/>
       <use x="95.410156" xlink:href="#DejaVuSans-37"/>
       <use x="159.033203" xlink:href="#DejaVuSans-30"/>
      </g>
     </g>
    </g>
    <g id="xtick_4">
     <g id="text_4">
      <!-- 0.75 -->
      <g style="fill:#ffffff;" transform="translate(752.563437 404.069687)scale(0.3 -0.3)">
       <use xlink:href="#DejaVuSans-30"/>
       <use x="63.623047" xlink:href="#DejaVuSans-2e"/>
       <use x="95.410156" xlink:href="#DejaVuSans-37"/>
       <use x="159.033203" xlink:href="#DejaVuSans-35"/>
      </g>
     </g>
    </g>
    <g id="xtick_5">
     <g id="text_5">
      <!-- 0.80 -->
      <g style="fill:#ffffff;" transform="translate(973.355937 404.069687)scale(0.3 -0.3)">
       <defs>
        <path d="M 2034 2216
Q 1584 2216 1326 1975
Q 1069 1734 1069 1313
Q 1069 891 1326 650
Q 1584 409 2034 409
Q 2484 409 2743 651
Q 3003 894 3003 1313
Q 3003 1734 2745 1975
Q 2488 2216 2034 2216
z
M 1403 2484
Q 997 2584 770 2862
Q 544 3141 544 3541
Q 544 4100 942 4425
Q 1341 4750 2034 4750
Q 2731 4750 3128 4425
Q 3525 4100 3525 3541
Q 3525 3141 3298 2862
Q 3072 2584 2669 2484
Q 3125 2378 3379 2068
Q 3634 1759 3634 1313
Q 3634 634 3220 271
Q 2806 -91 2034 -91
Q 1263 -91 848 271
Q 434 634 434 1313
Q 434 1759 690 2068
Q 947 2378 1403 2484
z
M 1172 3481
Q 1172 3119 1398 2916
Q 1625 2713 2034 2713
Q 2441 2713 2670 2916
Q 2900 3119 2900 3481
Q 2900 3844 2670 4047
Q 2441 4250 2034 4250
Q 1625 4250 1398 4047
Q 1172 3844 1172 3481
z
" id="DejaVuSans-38" transform="scale(0.015625)"/>
       </defs>
       <use xlink:href="#DejaVuSans-30"/>
       <use x="63.623047" xlink:href="#DejaVuSans-2e"/>
       <use x="95.410156" xlink:href="#DejaVuSans-38"/>
       <use x="159.033203" xlink:href="#DejaVuSans-30"/>
      </g>
     </g>
    </g>
    <g id="xtick_6">
     <g id="text_6">
      <!-- 0.85 -->
      <g style="fill:#ffffff;" transform="translate(1194.148438 404.069687)scale(0.3 -0.3)">
       <use xlink:href="#DejaVuSans-30"/>
       <use x="63.623047" xlink:href="#DejaVuSans-2e"/>
       <use x="95.410156" xlink:href="#DejaVuSans-38"/>
       <use x="159.033203" xlink:href="#DejaVuSans-35"/>
      </g>
     </g>
    </g>
    <g id="xtick_7">
     <g id="text_7">
      <!-- 0.90 -->
      <g style="fill:#ffffff;" transform="translate(1414.940938 404.069687)scale(0.3 -0.3)">
       <defs>
        <path d="M 703 97
L 703 672
Q 941 559 1184 500
Q 1428 441 1663 441
Q 2288 441 2617 861
Q 2947 1281 2994 2138
Q 2813 1869 2534 1725
Q 2256 1581 1919 1581
Q 1219 1581 811 2004
Q 403 2428 403 3163
Q 403 3881 828 4315
Q 1253 4750 1959 4750
Q 2769 4750 3195 4129
Q 3622 3509 3622 2328
Q 3622 1225 3098 567
Q 2575 -91 1691 -91
Q 1453 -91 1209 -44
Q 966 3 703 97
z
M 1959 2075
Q 2384 2075 2632 2365
Q 2881 2656 2881 3163
Q 2881 3666 2632 3958
Q 2384 4250 1959 4250
Q 1534 4250 1286 3958
Q 1038 3666 1038 3163
Q 1038 2656 1286 2365
Q 1534 2075 1959 2075
z
" id="DejaVuSans-39" transform="scale(0.015625)"/>
       </defs>
       <use xlink:href="#DejaVuSans-30"/>
       <use x="63.623047" xlink:href="#DejaVuSans-2e"/>
       <use x="95.410156" xlink:href="#DejaVuSans-39"/>
       <use x="159.033203" xlink:href="#DejaVuSans-30"/>
      </g>
     </g>
    </g>
    <g id="xtick_8">
     <g id="text_8">
      <!-- 0.95 -->
      <g style="fill:#ffffff;" transform="translate(1635.733438 404.069687)scale(0.3 -0.3)">
       <use xlink:href="#DejaVuSans-30"/>
       <use x="63.623047" xlink:href="#DejaVuSans-2e"/>
       <use x="95.410156" xlink:href="#DejaVuSans-39"/>
       <use x="159.033203" xlink:href="#DejaVuSans-35"/>
      </g>
     </g>
    </g>
    <g id="xtick_9">
     <g id="text_9">
      <!-- 1.00 -->
      <g style="fill:#ffffff;" transform="translate(1856.525938 404.069687)scale(0.3 -0.3)">
       <defs>
        <path d="M 794 531
L 1825 531
L 1825 4091
L 703 3866
L 703 4441
L 1819 4666
L 2450 4666
L 2450 531
L 3481 531
L 3481 0
L 794 0
L 794 531
z
" id="DejaVuSans-31" transform="scale(0.015625)"/>
       </defs>
       <use xlink:href="#DejaVuSans-31"/>
       <use x="63.623047" xlink:href="#DejaVuSans-2e"/>
       <use x="95.410156" xlink:href="#DejaVuSans-30"/>
       <use x="159.033203" xlink:href="#DejaVuSans-30"/>
      </g>
     </g>
    </g>
    <g id="text_10">
     <!-- Load factor -->
     <g transform="translate(922.053594 437.104062)scale(0.3 -0.3)">
      <defs>
       <path d="M 628 4666
L 1259 4666
L 1259 531
L 3531 531
L 3531 0
L 628 0
L 628 4666
z
" id="DejaVuSans-4c" transform="scale(0.015625)"/>
       <path d="M 1959 3097
Q 1497 3097 1228 2736
Q 959 2375 959 1747
Q 959 1119 1226 758
Q 1494 397 1959 397
Q 2419 397 2687 759
Q 2956 1122 2956 1747
Q 2956 2369 2687 2733
Q 2419 3097 1959 3097
z
M 1959 3584
Q 2709 3584 3137 3096
Q 3566 2609 3566 1747
Q 3566 888 3137 398
Q 2709 -91 1959 -91
Q 1206 -91 779 398
Q 353 888 353 1747
Q 353 2609 779 3096
Q 1206 3584 1959 3584
z
" id="DejaVuSans-6f" transform="scale(0.015625)"/>
       <path d="M 2194 1759
Q 1497 1759 1228 1600
Q 959 1441 959 1056
Q 959 750 1161 570
Q 1363 391 1709 391
Q 2188 391 2477 730
Q 2766 1069 2766 1631
L 2766 1759
L 2194 1759
z
M 3341 1997
L 3341 0
L 2766 0
L 2766 531
Q 2569 213 2275 61
Q 1981 -91 1556 -91
Q 1019 -91 701 211
Q 384 513 384 1019
Q 384 1609 779 1909
Q 1175 2209 1959 2209
L 2766 2209
L 2766 2266
Q 2766 2663 2505 2880
Q 2244 3097 1772 3097
Q 1472 3097 1187 3025
Q 903 2953 641 2809
L 641 3341
Q 956 3463 1253 3523
Q 1550 3584 1831 3584
Q 2591 3584 2966 3190
Q 3341 2797 3341 1997
z
" id="DejaVuSans-61" transform="scale(0.015625)"/>
       <path d="M 2906 2969
L 2906 4863
L 3481 4863
L 3481 0
L 2906 0
L 2906 525
Q 2725 213 2448 61
Q 2172 -91 1784 -91
Q 1150 -91 751 415
Q 353 922 353 1747
Q 353 2572 751 3078
Q 1150 3584 1784 3584
Q 2172 3584 2448 3432
Q 2725 3281 2906 2969
z
M 947 1747
Q 947 1113 1208 752
Q 1469 391 1925 391
Q 2381 391 2643 752
Q 2906 1113 2906 1747
Q 2906 2381 2643 2742
Q 2381 3103 1925 3103
Q 1469 3103 1208 2742
Q 947 2381 947 1747
z
" id="DejaVuSans-64" transform="scale(0.015625)"/>
       <path id="DejaVuSans-20" transform="scale(0.015625)"/>
       <path d="M 2375 4863
L 2375 4384
L 1825 4384
Q 1516 4384 1395 4259
Q 1275 4134 1275 3809
L 1275 3500
L 2222 3500
L 2222 3053
L 1275 3053
L 1275 0
L 697 0
L 697 3053
L 147 3053
L 147 3500
L 697 3500
L 697 3744
Q 697 4328 969 4595
Q 1241 4863 1831 4863
L 2375 4863
z
" id="DejaVuSans-66" transform="scale(0.015625)"/>
       <path d="M 3122 3366
L 3122 2828
Q 2878 2963 2633 3030
Q 2388 3097 2138 3097
Q 1578 3097 1268 2742
Q 959 2388 959 1747
Q 959 1106 1268 751
Q 1578 397 2138 397
Q 2388 397 2633 464
Q 2878 531 3122 666
L 3122 134
Q 2881 22 2623 -34
Q 2366 -91 2075 -91
Q 1284 -91 818 406
Q 353 903 353 1747
Q 353 2603 823 3093
Q 1294 3584 2113 3584
Q 2378 3584 2631 3529
Q 2884 3475 3122 3366
z
" id="DejaVuSans-63" transform="scale(0.015625)"/>
       <path d="M 1172 4494
L 1172 3500
L 2356 3500
L 2356 3053
L 1172 3053
L 1172 1153
Q 1172 725 1289 603
Q 1406 481 1766 481
L 2356 481
L 2356 0
L 1766 0
Q 1100 0 847 248
Q 594 497 594 1153
L 594 3053
L 172 3053
L 172 3500
L 594 3500
L 594 4494
L 1172 4494
z
" id="DejaVuSans-74" transform="scale(0.015625)"/>
       <path d="M 2631 2963
Q 2534 3019 2420 3045
Q 2306 3072 2169 3072
Q 1681 3072 1420 2755
Q 1159 2438 1159 1844
L 1159 0
L 581 0
L 581 3500
L 1159 3500
L 1159 2956
Q 1341 3275 1631 3429
Q 1922 3584 2338 3584
Q 2397 3584 2469 3576
Q 2541 3569 2628 3553
L 2631 2963
z
" id="DejaVuSans-72" transform="scale(0.015625)"/>
      </defs>
      <use xlink:href="#DejaVuSans-4c"/>
      <use x="53.962891" xlink:href="#DejaVuSans-6f"/>
      <use x="115.144531" xlink:href="#DejaVuSans-61"/>
      <use x="176.423828" xlink:href="#DejaVuSans-64"/>
      <use x="239.900391" xlink:href="#DejaVuSans-20"/>
      <use x="271.6875" xlink:href="#DejaVuSans-66"/>
      <use x="306.892578" xlink:href="#DejaVuSans-61"/>
      <use x="368.171875" xlink:href="#DejaVuSans-63"/>
      <use x="423.152344" xlink:href="#DejaVuSans-74"/>
      <use x="462.361328" xlink:href="#DejaVuSans-6f"/>
      <use x="523.542969" xlink:href="#DejaVuSans-72"/>
     </g>
    </g>
   </g>
   <g id="matplotlib.axis_2">
    <g id="ytick_1">
     <g id="text_11">
      <!-- 0.0 -->
      <g style="fill:#ffffff;" transform="translate(68.875 385.672031)scale(0.3 -0.3)">
       <use xlink:href="#DejaVuSans-30"/>
       <use x="63.623047" xlink:href="#DejaVuSans-2e"/>
       <use x="95.410156" xlink:href="#DejaVuSans-30"/>
      </g>
     </g>
    </g>
    <g id="ytick_2">
     <g id="text_12">
      <!-- 0.2 -->
      <g style="fill:#ffffff;" transform="translate(68.875 318.064031)scale(0.3 -0.3)">
       <defs>
        <path d="M 1228 531
L 3431 531
L 3431 0
L 469 0
L 469 531
Q 828 903 1448 1529
Q 2069 2156 2228 2338
Q 2531 2678 2651 2914
Q 2772 3150 2772 3378
Q 2772 3750 2511 3984
Q 2250 4219 1831 4219
Q 1534 4219 1204 4116
Q 875 4013 500 3803
L 500 4441
Q 881 4594 1212 4672
Q 1544 4750 1819 4750
Q 2544 4750 2975 4387
Q 3406 4025 3406 3419
Q 3406 3131 3298 2873
Q 3191 2616 2906 2266
Q 2828 2175 2409 1742
Q 1991 1309 1228 531
z
" id="DejaVuSans-32" transform="scale(0.015625)"/>
       </defs>
       <use xlink:href="#DejaVuSans-30"/>
       <use x="63.623047" xlink:href="#DejaVuSans-2e"/>
       <use x="95.410156" xlink:href="#DejaVuSans-32"/>
      </g>
     </g>
    </g>
    <g id="ytick_3">
     <g id="text_13">
      <!-- 0.4 -->
      <g style="fill:#ffffff;" transform="translate(68.875 250.456031)scale(0.3 -0.3)">
       <defs>
        <path d="M 2419 4116
L 825 1625
L 2419 1625
L 2419 4116
z
M 2253 4666
L 3047 4666
L 3047 1625
L 3713 1625
L 3713 1100
L 3047 1100
L 3047 0
L 2419 0
L 2419 1100
L 313 1100
L 313 1709
L 2253 4666
z
" id="DejaVuSans-34" transform="scale(0.015625)"/>
       </defs>
       <use xlink:href="#DejaVuSans-30"/>
       <use x="63.623047" xlink:href="#DejaVuSans-2e"/>
       <use x="95.410156" xlink:href="#DejaVuSans-34"/>
      </g>
     </g>
    </g>
    <g id="ytick_4">
     <g id="text_14">
      <!-- 0.6 -->
      <g style="fill:#ffffff;" transform="translate(68.875 182.848031)scale(0.3 -0.3)">
       <use xlink:href="#DejaVuSans-30"/>
       <use x="63.623047" xlink:href="#DejaVuSans-2e"/>
       <use x="95.410156" xlink:href="#DejaVuSans-36"/>
      </g>
     </g>
    </g>
    <g id="ytick_5">
     <g id="text_15">
      <!-- 0.8 -->
      <g style="fill:#ffffff;" transform="translate(68.875 115.240031)scale(0.3 -0.3)">
       <use xlink:href="#DejaVuSans-30"/>
       <use x="63.623047" xlink:href="#DejaVuSans-2e"/>
       <use x="95.410156" xlink:href="#DejaVuSans-38"/>
      </g>
     </g>
    </g>
    <g id="ytick_6">
     <g id="text_16">
      <!-- 1.0 -->
      <g style="fill:#ffffff;" transform="translate(68.875 47.632031)scale(0.3 -0.3)">
       <use xlink:href="#DejaVuSans-31"/>
       <use x="63.623047" xlink:href="#DejaVuSans-2e"/>
       <use x="95.410156" xlink:href="#DejaVuSans-30"/>
      </g>
     </g>
    </g>
   </g>
   <g id="patch_3">
    <path d="M 123.584375 374.274375
L 123.584375 36.234375
" style="fill:none;"/>
   </g>
   <g id="patch_4">
    <path d="M 1889.924375 374.274375
L 1889.924375 36.234375
" style="fill:none;"/>
   </g>
   <g id="patch_5">
    <path d="M 123.584375 374.274375
L 1889.924375 374.274375
" style="fill:none;"/>
   </g>
   <g id="patch_6">
    <path d="M 123.584375 36.234375
L 1889.924375 36.234375
" style="fill:none;"/>
   </g>
  </g>
  <g id="axes_2">
   <g id="patch_7">
    <path d="M 123.584375 374.274375
L 947.769375 374.274375
L 947.769375 36.234375
L 123.584375 36.234375
z
" style="fill:#ffffff;"/>
   </g>
   <g id="matplotlib.axis_3">
    <g id="xtick_10">
     <g id="line2d_1">
      <defs>
       <path d="M 0 0
L 0 3.5
" id="m0adb3e021b" style="stroke:#000000;stroke-width:0.8;"/>
      </defs>
      <g>
       <use style="stroke:#000000;stroke-width:0.8;" x="123.584375" xlink:href="#m0adb3e021b" y="374.274375"/>
      </g>
     </g>
     <g id="text_17">
      <!-- 0.60 -->
      <g transform="translate(90.185938 404.069687)scale(0.3 -0.3)">
       <use xlink:href="#DejaVuSans-30"/>
       <use x="63.623047" xlink:href="#DejaVuSans-2e"/>
       <use x="95.410156" xlink:href="#DejaVuSans-36"/>
       <use x="159.033203" xlink:href="#DejaVuSans-30"/>
      </g>
     </g>
    </g>
    <g id="xtick_11">
     <g id="line2d_2">
      <g>
       <use style="stroke:#000000;stroke-width:0.8;" x="226.6075" xlink:href="#m0adb3e021b" y="374.274375"/>
      </g>
     </g>
     <g id="text_18">
      <!-- 0.65 -->
      <g transform="translate(193.209063 404.069687)scale(0.3 -0.3)">
       <use xlink:href="#DejaVuSans-30"/>
       <use x="63.623047" xlink:href="#DejaVuSans-2e"/>
       <use x="95.410156" xlink:href="#DejaVuSans-36"/>
       <use x="159.033203" xlink:href="#DejaVuSans-35"/>
      </g>
     </g>
    </g>
    <g id="xtick_12">
     <g id="line2d_3">
      <g>
       <use style="stroke:#000000;stroke-width:0.8;" x="329.630625" xlink:href="#m0adb3e021b" y="374.274375"/>
      </g>
     </g>
     <g id="text_19">
      <!-- 0.70 -->
      <g transform="translate(296.232188 404.069687)scale(0.3 -0.3)">
       <use xlink:href="#DejaVuSans-30"/>
       <use x="63.623047" xlink:href="#DejaVuSans-2e"/>
       <use x="95.410156" xlink:href="#DejaVuSans-37"/>
       <use x="159.033203" xlink:href="#DejaVuSans-30"/>
      </g>
     </g>
    </g>
    <g id="xtick_13">
     <g id="line2d_4">
      <g>
       <use style="stroke:#000000;stroke-width:0.8;" x="432.65375" xlink:href="#m0adb3e021b" y="374.274375"/>
      </g>
     </g>
     <g id="text_20">
      <!-- 0.75 -->
      <g transform="translate(399.255312 404.069687)scale(0.3 -0.3)">
       <use xlink:href="#DejaVuSans-30"/>
       <use x="63.623047" xlink:href="#DejaVuSans-2e"/>
       <use x="95.410156" xlink:href="#DejaVuSans-37"/>
       <use x="159.033203" xlink:href="#DejaVuSans-35"/>
      </g>
     </g>
    </g>
    <g id="xtick_14">
     <g id="line2d_5">
      <g>
       <use style="stroke:#000000;stroke-width:0.8;" x="535.676875" xlink:href="#m0adb3e021b" y="374.274375"/>
      </g>
     </g>
     <g id="text_21">
      <!-- 0.80 -->
      <g transform="translate(502.278438 404.069687)scale(0.3 -0.3)">
       <use xlink:href="#DejaVuSans-30"/>
       <use x="63.623047" xlink:href="#DejaVuSans-2e"/>
       <use x="95.410156" xlink:href="#DejaVuSans-38"/>
       <use x="159.033203" xlink:href="#DejaVuSans-30"/>
      </g>
     </g>
    </g>
    <g id="xtick_15">
     <g id="line2d_6">
      <g>
       <use style="stroke:#000000;stroke-width:0.8;" x="638.7" xlink:href="#m0adb3e021b" y="374.274375"/>
      </g>
     </g>
     <g id="text_22">
      <!-- 0.85 -->
      <g transform="translate(605.301563 404.069687)scale(0.3 -0.3)">
       <use xlink:href="#DejaVuSans-30"/>
       <use x="63.623047" xlink:href="#DejaVuSans-2e"/>
       <use x="95.410156" xlink:href="#DejaVuSans-38"/>
       <use x="159.033203" xlink:href="#DejaVuSans-35"/>
      </g>
     </g>
    </g>
    <g id="xtick_16">
     <g id="line2d_7">
      <g>
       <use style="stroke:#000000;stroke-width:0.8;" x="741.723125" xlink:href="#m0adb3e021b" y="374.274375"/>
      </g>
     </g>
     <g id="text_23">
      <!-- 0.90 -->
      <g transform="translate(708.324688 404.069687)scale(0.3 -0.3)">
       <use xlink:href="#DejaVuSans-30"/>
       <use x="63.623047" xlink:href="#DejaVuSans-2e"/>
       <use x="95.410156" xlink:href="#DejaVuSans-39"/>
       <use x="159.033203" xlink:href="#DejaVuSans-30"/>
      </g>
     </g>
    </g>
    <g id="xtick_17">
     <g id="line2d_8">
      <g>
       <use style="stroke:#000000;stroke-width:0.8;" x="844.74625" xlink:href="#m0adb3e021b" y="374.274375"/>
      </g>
     </g>
     <g id="text_24">
      <!-- 0.95 -->
      <g transform="translate(811.347813 404.069687)scale(0.3 -0.3)">
       <use xlink:href="#DejaVuSans-30"/>
       <use x="63.623047" xlink:href="#DejaVuSans-2e"/>
       <use x="95.410156" xlink:href="#DejaVuSans-39"/>
       <use x="159.033203" xlink:href="#DejaVuSans-35"/>
      </g>
     </g>
    </g>
    <g id="xtick_18">
     <g id="line2d_9">
      <g>
       <use style="stroke:#000000;stroke-width:0.8;" x="947.769375" xlink:href="#m0adb3e021b" y="374.274375"/>
      </g>
     </g>
     <g id="text_25">
      <!-- 1.00 -->
      <g transform="translate(914.370938 404.069687)scale(0.3 -0.3)">
       <use xlink:href="#DejaVuSans-31"/>
       <use x="63.623047" xlink:href="#DejaVuSans-2e"/>
       <use x="95.410156" xlink:href="#DejaVuSans-30"/>
       <use x="159.033203" xlink:href="#DejaVuSans-30"/>
      </g>
     </g>
    </g>
   </g>
   <g id="matplotlib.axis_4">
    <g id="ytick_7">
     <g id="line2d_10">
      <defs>
       <path d="M 0 0
L -3.5 0
" id="m7597a509db" style="stroke:#000000;stroke-width:0.8;"/>
      </defs>
      <g>
       <use style="stroke:#000000;stroke-width:0.8;" x="123.584375" xlink:href="#m7597a509db" y="373.871149"/>
      </g>
     </g>
     <g id="text_26">
      <!-- 0 -->
      <g transform="translate(97.496875 385.268806)scale(0.3 -0.3)">
       <use xlink:href="#DejaVuSans-30"/>
      </g>
     </g>
    </g>
    <g id="ytick_8">
     <g id="line2d_11">
      <g>
       <use style="stroke:#000000;stroke-width:0.8;" x="123.584375" xlink:href="#m7597a509db" y="261.873388"/>
      </g>
     </g>
     <g id="text_27">
      <!-- 500 -->
      <g transform="translate(59.321875 273.271044)scale(0.3 -0.3)">
       <use xlink:href="#DejaVuSans-35"/>
       <use x="63.623047" xlink:href="#DejaVuSans-30"/>
       <use x="127.246094" xlink:href="#DejaVuSans-30"/>
      </g>
     </g>
    </g>
    <g id="ytick_9">
     <g id="line2d_12">
      <g>
       <use style="stroke:#000000;stroke-width:0.8;" x="123.584375" xlink:href="#m7597a509db" y="149.875626"/>
      </g>
     </g>
     <g id="text_28">
      <!-- 1000 -->
      <g transform="translate(40.234375 161.273282)scale(0.3 -0.3)">
       <use xlink:href="#DejaVuSans-31"/>
       <use x="63.623047" xlink:href="#DejaVuSans-30"/>
       <use x="127.246094" xlink:href="#DejaVuSans-30"/>
       <use x="190.869141" xlink:href="#DejaVuSans-30"/>
      </g>
     </g>
    </g>
    <g id="ytick_10">
     <g id="line2d_13">
      <g>
       <use style="stroke:#000000;stroke-width:0.8;" x="123.584375" xlink:href="#m7597a509db" y="37.877864"/>
      </g>
     </g>
     <g id="text_29">
      <!-- 1500 -->
      <g transform="translate(40.234375 49.27552)scale(0.3 -0.3)">
       <use xlink:href="#DejaVuSans-31"/>
       <use x="63.623047" xlink:href="#DejaVuSans-35"/>
       <use x="127.246094" xlink:href="#DejaVuSans-30"/>
       <use x="190.869141" xlink:href="#DejaVuSans-30"/>
      </g>
     </g>
    </g>
    <g id="text_30">
     <!-- Rate (MOperation/s) -->
     <g transform="translate(29.995313 356.573906)rotate(-90)scale(0.3 -0.3)">
      <defs>
       <path d="M 2841 2188
Q 3044 2119 3236 1894
Q 3428 1669 3622 1275
L 4263 0
L 3584 0
L 2988 1197
Q 2756 1666 2539 1819
Q 2322 1972 1947 1972
L 1259 1972
L 1259 0
L 628 0
L 628 4666
L 2053 4666
Q 2853 4666 3247 4331
Q 3641 3997 3641 3322
Q 3641 2881 3436 2590
Q 3231 2300 2841 2188
z
M 1259 4147
L 1259 2491
L 2053 2491
Q 2509 2491 2742 2702
Q 2975 2913 2975 3322
Q 2975 3731 2742 3939
Q 2509 4147 2053 4147
L 1259 4147
z
" id="DejaVuSans-52" transform="scale(0.015625)"/>
       <path d="M 3597 1894
L 3597 1613
L 953 1613
Q 991 1019 1311 708
Q 1631 397 2203 397
Q 2534 397 2845 478
Q 3156 559 3463 722
L 3463 178
Q 3153 47 2828 -22
Q 2503 -91 2169 -91
Q 1331 -91 842 396
Q 353 884 353 1716
Q 353 2575 817 3079
Q 1281 3584 2069 3584
Q 2775 3584 3186 3129
Q 3597 2675 3597 1894
z
M 3022 2063
Q 3016 2534 2758 2815
Q 2500 3097 2075 3097
Q 1594 3097 1305 2825
Q 1016 2553 972 2059
L 3022 2063
z
" id="DejaVuSans-65" transform="scale(0.015625)"/>
       <path d="M 1984 4856
Q 1566 4138 1362 3434
Q 1159 2731 1159 2009
Q 1159 1288 1364 580
Q 1569 -128 1984 -844
L 1484 -844
Q 1016 -109 783 600
Q 550 1309 550 2009
Q 550 2706 781 3412
Q 1013 4119 1484 4856
L 1984 4856
z
" id="DejaVuSans-28" transform="scale(0.015625)"/>
       <path d="M 628 4666
L 1569 4666
L 2759 1491
L 3956 4666
L 4897 4666
L 4897 0
L 4281 0
L 4281 4097
L 3078 897
L 2444 897
L 1241 4097
L 1241 0
L 628 0
L 628 4666
z
" id="DejaVuSans-4d" transform="scale(0.015625)"/>
       <path d="M 2522 4238
Q 1834 4238 1429 3725
Q 1025 3213 1025 2328
Q 1025 1447 1429 934
Q 1834 422 2522 422
Q 3209 422 3611 934
Q 4013 1447 4013 2328
Q 4013 3213 3611 3725
Q 3209 4238 2522 4238
z
M 2522 4750
Q 3503 4750 4090 4092
Q 4678 3434 4678 2328
Q 4678 1225 4090 567
Q 3503 -91 2522 -91
Q 1538 -91 948 565
Q 359 1222 359 2328
Q 359 3434 948 4092
Q 1538 4750 2522 4750
z
" id="DejaVuSans-4f" transform="scale(0.015625)"/>
       <path d="M 1159 525
L 1159 -1331
L 581 -1331
L 581 3500
L 1159 3500
L 1159 2969
Q 1341 3281 1617 3432
Q 1894 3584 2278 3584
Q 2916 3584 3314 3078
Q 3713 2572 3713 1747
Q 3713 922 3314 415
Q 2916 -91 2278 -91
Q 1894 -91 1617 61
Q 1341 213 1159 525
z
M 3116 1747
Q 3116 2381 2855 2742
Q 2594 3103 2138 3103
Q 1681 3103 1420 2742
Q 1159 2381 1159 1747
Q 1159 1113 1420 752
Q 1681 391 2138 391
Q 2594 391 2855 752
Q 3116 1113 3116 1747
z
" id="DejaVuSans-70" transform="scale(0.015625)"/>
       <path d="M 603 3500
L 1178 3500
L 1178 0
L 603 0
L 603 3500
z
M 603 4863
L 1178 4863
L 1178 4134
L 603 4134
L 603 4863
z
" id="DejaVuSans-69" transform="scale(0.015625)"/>
       <path d="M 3513 2113
L 3513 0
L 2938 0
L 2938 2094
Q 2938 2591 2744 2837
Q 2550 3084 2163 3084
Q 1697 3084 1428 2787
Q 1159 2491 1159 1978
L 1159 0
L 581 0
L 581 3500
L 1159 3500
L 1159 2956
Q 1366 3272 1645 3428
Q 1925 3584 2291 3584
Q 2894 3584 3203 3211
Q 3513 2838 3513 2113
z
" id="DejaVuSans-6e" transform="scale(0.015625)"/>
       <path d="M 1625 4666
L 2156 4666
L 531 -594
L 0 -594
L 1625 4666
z
" id="DejaVuSans-2f" transform="scale(0.015625)"/>
       <path d="M 2834 3397
L 2834 2853
Q 2591 2978 2328 3040
Q 2066 3103 1784 3103
Q 1356 3103 1142 2972
Q 928 2841 928 2578
Q 928 2378 1081 2264
Q 1234 2150 1697 2047
L 1894 2003
Q 2506 1872 2764 1633
Q 3022 1394 3022 966
Q 3022 478 2636 193
Q 2250 -91 1575 -91
Q 1294 -91 989 -36
Q 684 19 347 128
L 347 722
Q 666 556 975 473
Q 1284 391 1588 391
Q 1994 391 2212 530
Q 2431 669 2431 922
Q 2431 1156 2273 1281
Q 2116 1406 1581 1522
L 1381 1569
Q 847 1681 609 1914
Q 372 2147 372 2553
Q 372 3047 722 3315
Q 1072 3584 1716 3584
Q 2034 3584 2315 3537
Q 2597 3491 2834 3397
z
" id="DejaVuSans-73" transform="scale(0.015625)"/>
       <path d="M 513 4856
L 1013 4856
Q 1481 4119 1714 3412
Q 1947 2706 1947 2009
Q 1947 1309 1714 600
Q 1481 -109 1013 -844
L 513 -844
Q 928 -128 1133 580
Q 1338 1288 1338 2009
Q 1338 2731 1133 3434
Q 928 4138 513 4856
z
" id="DejaVuSans-29" transform="scale(0.015625)"/>
      </defs>
      <use xlink:href="#DejaVuSans-52"/>
      <use x="67.232422" xlink:href="#DejaVuSans-61"/>
      <use x="128.511719" xlink:href="#DejaVuSans-74"/>
      <use x="167.720703" xlink:href="#DejaVuSans-65"/>
      <use x="229.244141" xlink:href="#DejaVuSans-20"/>
      <use x="261.03125" xlink:href="#DejaVuSans-28"/>
      <use x="300.044922" xlink:href="#DejaVuSans-4d"/>
      <use x="386.324219" xlink:href="#DejaVuSans-4f"/>
      <use x="465.035156" xlink:href="#DejaVuSans-70"/>
      <use x="528.511719" xlink:href="#DejaVuSans-65"/>
      <use x="590.035156" xlink:href="#DejaVuSans-72"/>
      <use x="631.148438" xlink:href="#DejaVuSans-61"/>
      <use x="692.427734" xlink:href="#DejaVuSans-74"/>
      <use x="731.636719" xlink:href="#DejaVuSans-69"/>
      <use x="759.419922" xlink:href="#DejaVuSans-6f"/>
      <use x="820.601562" xlink:href="#DejaVuSans-6e"/>
      <use x="883.980469" xlink:href="#DejaVuSans-2f"/>
      <use x="917.671875" xlink:href="#DejaVuSans-73"/>
      <use x="969.771484" xlink:href="#DejaVuSans-29"/>
     </g>
    </g>
   </g>
   <g id="line2d_14">
    <path clip-path="url(#p82ebcb167e)" d="M 123.584375 51.59983
L 226.6075 52.634689
L 329.630625 54.458012
L 432.65375 57.450593
L 535.676875 62.270976
L 576.886125 64.804366
L 618.095375 68.000782
L 659.304625 71.629509
L 700.513875 76.08254
L 741.723125 81.476353
L 762.32775 84.61005
L 782.932375 88.388854
L 803.537 92.369255
L 824.141625 97.12916
L 844.74625 102.717848
L 865.350875 109.314516
L 885.9555 117.821866
L 906.560125 129.393475
L 927.16475 147.295197
" style="fill:none;stroke:#1f77b4;stroke-linecap:square;stroke-width:1.5;"/>
    <defs>
     <path d="M -3 3
L 3 3
L 3 -3
L -3 -3
z
" id="m4c76122796" style="stroke:#1f77b4;stroke-linejoin:miter;"/>
    </defs>
    <g clip-path="url(#p82ebcb167e)">
     <use style="fill:#1f77b4;stroke:#1f77b4;stroke-linejoin:miter;" x="123.584375" xlink:href="#m4c76122796" y="51.59983"/>
     <use style="fill:#1f77b4;stroke:#1f77b4;stroke-linejoin:miter;" x="226.6075" xlink:href="#m4c76122796" y="52.634689"/>
     <use style="fill:#1f77b4;stroke:#1f77b4;stroke-linejoin:miter;" x="329.630625" xlink:href="#m4c76122796" y="54.458012"/>
     <use style="fill:#1f77b4;stroke:#1f77b4;stroke-linejoin:miter;" x="432.65375" xlink:href="#m4c76122796" y="57.450593"/>
     <use style="fill:#1f77b4;stroke:#1f77b4;stroke-linejoin:miter;" x="535.676875" xlink:href="#m4c76122796" y="62.270976"/>
     <use style="fill:#1f77b4;stroke:#1f77b4;stroke-linejoin:miter;" x="576.886125" xlink:href="#m4c76122796" y="64.804366"/>
     <use style="fill:#1f77b4;stroke:#1f77b4;stroke-linejoin:miter;" x="618.095375" xlink:href="#m4c76122796" y="68.000782"/>
     <use style="fill:#1f77b4;stroke:#1f77b4;stroke-linejoin:miter;" x="659.304625" xlink:href="#m4c76122796" y="71.629509"/>
     <use style="fill:#1f77b4;stroke:#1f77b4;stroke-linejoin:miter;" x="700.513875" xlink:href="#m4c76122796" y="76.08254"/>
     <use style="fill:#1f77b4;stroke:#1f77b4;stroke-linejoin:miter;" x="741.723125" xlink:href="#m4c76122796" y="81.476353"/>
     <use style="fill:#1f77b4;stroke:#1f77b4;stroke-linejoin:miter;" x="762.32775" xlink:href="#m4c76122796" y="84.61005"/>
     <use style="fill:#1f77b4;stroke:#1f77b4;stroke-linejoin:miter;" x="782.932375" xlink:href="#m4c76122796" y="88.388854"/>
     <use style="fill:#1f77b4;stroke:#1f77b4;stroke-linejoin:miter;" x="803.537" xlink:href="#m4c76122796" y="92.369255"/>
     <use style="fill:#1f77b4;stroke:#1f77b4;stroke-linejoin:miter;" x="824.141625" xlink:href="#m4c76122796" y="97.12916"/>
     <use style="fill:#1f77b4;stroke:#1f77b4;stroke-linejoin:miter;" x="844.74625" xlink:href="#m4c76122796" y="102.717848"/>
     <use style="fill:#1f77b4;stroke:#1f77b4;stroke-linejoin:miter;" x="865.350875" xlink:href="#m4c76122796" y="109.314516"/>
     <use style="fill:#1f77b4;stroke:#1f77b4;stroke-linejoin:miter;" x="885.9555" xlink:href="#m4c76122796" y="117.821866"/>
     <use style="fill:#1f77b4;stroke:#1f77b4;stroke-linejoin:miter;" x="906.560125" xlink:href="#m4c76122796" y="129.393475"/>
     <use style="fill:#1f77b4;stroke:#1f77b4;stroke-linejoin:miter;" x="927.16475" xlink:href="#m4c76122796" y="147.295197"/>
    </g>
   </g>
   <g id="line2d_15">
    <path clip-path="url(#p82ebcb167e)" d="M 123.584375 88.63077
L 226.6075 88.680049
L 329.630625 89.562591
L 432.65375 91.551671
L 535.676875 94.907124
L 576.886125 97.140359
L 618.095375 99.516952
L 659.304625 103.342796
L 700.513875 109.923784
L 741.723125 119.461513
L 762.32775 125.410835
L 782.932375 133.089401
L 803.537 142.750328
L 824.141625 154.980484
L 844.74625 170.45611
L 865.350875 190.26941
L 885.9555 219.53465
L 906.560125 276.344394
L 927.16475 358.90892
" style="fill:none;stroke:#ff7f0e;stroke-linecap:square;stroke-width:1.5;"/>
    <defs>
     <path d="M 0 3
C 0.795609 3 1.55874 2.683901 2.12132 2.12132
C 2.683901 1.55874 3 0.795609 3 0
C 3 -0.795609 2.683901 -1.55874 2.12132 -2.12132
C 1.55874 -2.683901 0.795609 -3 0 -3
C -0.795609 -3 -1.55874 -2.683901 -2.12132 -2.12132
C -2.683901 -1.55874 -3 -0.795609 -3 0
C -3 0.795609 -2.683901 1.55874 -2.12132 2.12132
C -1.55874 2.683901 -0.795609 3 0 3
z
" id="m481ca7dbe0" style="stroke:#ff7f0e;"/>
    </defs>
    <g clip-path="url(#p82ebcb167e)">
     <use style="fill:#ff7f0e;stroke:#ff7f0e;" x="123.584375" xlink:href="#m481ca7dbe0" y="88.63077"/>
     <use style="fill:#ff7f0e;stroke:#ff7f0e;" x="226.6075" xlink:href="#m481ca7dbe0" y="88.680049"/>
     <use style="fill:#ff7f0e;stroke:#ff7f0e;" x="329.630625" xlink:href="#m481ca7dbe0" y="89.562591"/>
     <use style="fill:#ff7f0e;stroke:#ff7f0e;" x="432.65375" xlink:href="#m481ca7dbe0" y="91.551671"/>
     <use style="fill:#ff7f0e;stroke:#ff7f0e;" x="535.676875" xlink:href="#m481ca7dbe0" y="94.907124"/>
     <use style="fill:#ff7f0e;stroke:#ff7f0e;" x="576.886125" xlink:href="#m481ca7dbe0" y="97.140359"/>
     <use style="fill:#ff7f0e;stroke:#ff7f0e;" x="618.095375" xlink:href="#m481ca7dbe0" y="99.516952"/>
     <use style="fill:#ff7f0e;stroke:#ff7f0e;" x="659.304625" xlink:href="#m481ca7dbe0" y="103.342796"/>
     <use style="fill:#ff7f0e;stroke:#ff7f0e;" x="700.513875" xlink:href="#m481ca7dbe0" y="109.923784"/>
     <use style="fill:#ff7f0e;stroke:#ff7f0e;" x="741.723125" xlink:href="#m481ca7dbe0" y="119.461513"/>
     <use style="fill:#ff7f0e;stroke:#ff7f0e;" x="762.32775" xlink:href="#m481ca7dbe0" y="125.410835"/>
     <use style="fill:#ff7f0e;stroke:#ff7f0e;" x="782.932375" xlink:href="#m481ca7dbe0" y="133.089401"/>
     <use style="fill:#ff7f0e;stroke:#ff7f0e;" x="803.537" xlink:href="#m481ca7dbe0" y="142.750328"/>
     <use style="fill:#ff7f0e;stroke:#ff7f0e;" x="824.141625" xlink:href="#m481ca7dbe0" y="154.980484"/>
     <use style="fill:#ff7f0e;stroke:#ff7f0e;" x="844.74625" xlink:href="#m481ca7dbe0" y="170.45611"/>
     <use style="fill:#ff7f0e;stroke:#ff7f0e;" x="865.350875" xlink:href="#m481ca7dbe0" y="190.26941"/>
     <use style="fill:#ff7f0e;stroke:#ff7f0e;" x="885.9555" xlink:href="#m481ca7dbe0" y="219.53465"/>
     <use style="fill:#ff7f0e;stroke:#ff7f0e;" x="906.560125" xlink:href="#m481ca7dbe0" y="276.344394"/>
     <use style="fill:#ff7f0e;stroke:#ff7f0e;" x="927.16475" xlink:href="#m481ca7dbe0" y="358.90892"/>
    </g>
   </g>
   <g id="patch_8">
    <path d="M 123.584375 374.274375
L 123.584375 36.234375
" style="fill:none;stroke:#000000;stroke-linecap:square;stroke-linejoin:miter;stroke-width:0.8;"/>
   </g>
   <g id="patch_9">
    <path d="M 123.584375 374.274375
L 947.769375 374.274375
" style="fill:none;stroke:#000000;stroke-linecap:square;stroke-linejoin:miter;stroke-width:0.8;"/>
   </g>
   <g id="text_31">
    <!-- Insertion rate -->
    <g transform="translate(419.539375 29.995312)scale(0.3 -0.3)">
     <defs>
      <path d="M 588 4666
L 1791 4666
L 1791 0
L 588 0
L 588 4666
z
" id="DejaVuSans-Bold-49" transform="scale(0.015625)"/>
      <path d="M 4056 2131
L 4056 0
L 2931 0
L 2931 347
L 2931 1631
Q 2931 2084 2911 2256
Q 2891 2428 2841 2509
Q 2775 2619 2662 2680
Q 2550 2741 2406 2741
Q 2056 2741 1856 2470
Q 1656 2200 1656 1722
L 1656 0
L 538 0
L 538 3500
L 1656 3500
L 1656 2988
Q 1909 3294 2193 3439
Q 2478 3584 2822 3584
Q 3428 3584 3742 3212
Q 4056 2841 4056 2131
z
" id="DejaVuSans-Bold-6e" transform="scale(0.015625)"/>
      <path d="M 3272 3391
L 3272 2541
Q 2913 2691 2578 2766
Q 2244 2841 1947 2841
Q 1628 2841 1473 2761
Q 1319 2681 1319 2516
Q 1319 2381 1436 2309
Q 1553 2238 1856 2203
L 2053 2175
Q 2913 2066 3209 1816
Q 3506 1566 3506 1031
Q 3506 472 3093 190
Q 2681 -91 1863 -91
Q 1516 -91 1145 -36
Q 775 19 384 128
L 384 978
Q 719 816 1070 734
Q 1422 653 1784 653
Q 2113 653 2278 743
Q 2444 834 2444 1013
Q 2444 1163 2330 1236
Q 2216 1309 1875 1350
L 1678 1375
Q 931 1469 631 1722
Q 331 1975 331 2491
Q 331 3047 712 3315
Q 1094 3584 1881 3584
Q 2191 3584 2531 3537
Q 2872 3491 3272 3391
z
" id="DejaVuSans-Bold-73" transform="scale(0.015625)"/>
      <path d="M 4031 1759
L 4031 1441
L 1416 1441
Q 1456 1047 1700 850
Q 1944 653 2381 653
Q 2734 653 3104 758
Q 3475 863 3866 1075
L 3866 213
Q 3469 63 3072 -14
Q 2675 -91 2278 -91
Q 1328 -91 801 392
Q 275 875 275 1747
Q 275 2603 792 3093
Q 1309 3584 2216 3584
Q 3041 3584 3536 3087
Q 4031 2591 4031 1759
z
M 2881 2131
Q 2881 2450 2695 2645
Q 2509 2841 2209 2841
Q 1884 2841 1681 2658
Q 1478 2475 1428 2131
L 2881 2131
z
" id="DejaVuSans-Bold-65" transform="scale(0.015625)"/>
      <path d="M 3138 2547
Q 2991 2616 2845 2648
Q 2700 2681 2553 2681
Q 2122 2681 1889 2404
Q 1656 2128 1656 1613
L 1656 0
L 538 0
L 538 3500
L 1656 3500
L 1656 2925
Q 1872 3269 2151 3426
Q 2431 3584 2822 3584
Q 2878 3584 2943 3579
Q 3009 3575 3134 3559
L 3138 2547
z
" id="DejaVuSans-Bold-72" transform="scale(0.015625)"/>
      <path d="M 1759 4494
L 1759 3500
L 2913 3500
L 2913 2700
L 1759 2700
L 1759 1216
Q 1759 972 1856 886
Q 1953 800 2241 800
L 2816 800
L 2816 0
L 1856 0
Q 1194 0 917 276
Q 641 553 641 1216
L 641 2700
L 84 2700
L 84 3500
L 641 3500
L 641 4494
L 1759 4494
z
" id="DejaVuSans-Bold-74" transform="scale(0.015625)"/>
      <path d="M 538 3500
L 1656 3500
L 1656 0
L 538 0
L 538 3500
z
M 538 4863
L 1656 4863
L 1656 3950
L 538 3950
L 538 4863
z
" id="DejaVuSans-Bold-69" transform="scale(0.015625)"/>
      <path d="M 2203 2784
Q 1831 2784 1636 2517
Q 1441 2250 1441 1747
Q 1441 1244 1636 976
Q 1831 709 2203 709
Q 2569 709 2762 976
Q 2956 1244 2956 1747
Q 2956 2250 2762 2517
Q 2569 2784 2203 2784
z
M 2203 3584
Q 3106 3584 3614 3096
Q 4122 2609 4122 1747
Q 4122 884 3614 396
Q 3106 -91 2203 -91
Q 1297 -91 786 396
Q 275 884 275 1747
Q 275 2609 786 3096
Q 1297 3584 2203 3584
z
" id="DejaVuSans-Bold-6f" transform="scale(0.015625)"/>
      <path id="DejaVuSans-Bold-20" transform="scale(0.015625)"/>
      <path d="M 2106 1575
Q 1756 1575 1579 1456
Q 1403 1338 1403 1106
Q 1403 894 1545 773
Q 1688 653 1941 653
Q 2256 653 2472 879
Q 2688 1106 2688 1447
L 2688 1575
L 2106 1575
z
M 3816 1997
L 3816 0
L 2688 0
L 2688 519
Q 2463 200 2181 54
Q 1900 -91 1497 -91
Q 953 -91 614 226
Q 275 544 275 1050
Q 275 1666 698 1953
Q 1122 2241 2028 2241
L 2688 2241
L 2688 2328
Q 2688 2594 2478 2717
Q 2269 2841 1825 2841
Q 1466 2841 1156 2769
Q 847 2697 581 2553
L 581 3406
Q 941 3494 1303 3539
Q 1666 3584 2028 3584
Q 2975 3584 3395 3211
Q 3816 2838 3816 1997
z
" id="DejaVuSans-Bold-61" transform="scale(0.015625)"/>
     </defs>
     <use xlink:href="#DejaVuSans-Bold-49"/>
     <use x="37.207031" xlink:href="#DejaVuSans-Bold-6e"/>
     <use x="108.398438" xlink:href="#DejaVuSans-Bold-73"/>
     <use x="167.919922" xlink:href="#DejaVuSans-Bold-65"/>
     <use x="235.742188" xlink:href="#DejaVuSans-Bold-72"/>
     <use x="285.058594" xlink:href="#DejaVuSans-Bold-74"/>
     <use x="332.861328" xlink:href="#DejaVuSans-Bold-69"/>
     <use x="367.138672" xlink:href="#DejaVuSans-Bold-6f"/>
     <use x="435.839844" xlink:href="#DejaVuSans-Bold-6e"/>
     <use x="507.03125" xlink:href="#DejaVuSans-Bold-20"/>
     <use x="541.845703" xlink:href="#DejaVuSans-Bold-72"/>
     <use x="591.162109" xlink:href="#DejaVuSans-Bold-61"/>
     <use x="658.642578" xlink:href="#DejaVuSans-Bold-74"/>
     <use x="706.445312" xlink:href="#DejaVuSans-Bold-65"/>
    </g>
   </g>
  </g>
  <g id="axes_3">
   <g id="patch_10">
    <path d="M 1065.739375 374.274375
L 1889.924375 374.274375
L 1889.924375 36.234375
L 1065.739375 36.234375
z
" style="fill:#ffffff;"/>
   </g>
   <g id="matplotlib.axis_5">
    <g id="xtick_19">
     <g id="line2d_16">
      <g>
       <use style="stroke:#000000;stroke-width:0.8;" x="1065.739375" xlink:href="#m0adb3e021b" y="374.274375"/>
      </g>
     </g>
     <g id="text_32">
      <!-- 0.60 -->
      <g transform="translate(1032.340938 404.069687)scale(0.3 -0.3)">
       <use xlink:href="#DejaVuSans-30"/>
       <use x="63.623047" xlink:href="#DejaVuSans-2e"/>
       <use x="95.410156" xlink:href="#DejaVuSans-36"/>
       <use x="159.033203" xlink:href="#DejaVuSans-30"/>
      </g>
     </g>
    </g>
    <g id="xtick_20">
     <g id="line2d_17">
      <g>
       <use style="stroke:#000000;stroke-width:0.8;" x="1168.7625" xlink:href="#m0adb3e021b" y="374.274375"/>
      </g>
     </g>
     <g id="text_33">
      <!-- 0.65 -->
      <g transform="translate(1135.364063 404.069687)scale(0.3 -0.3)">
       <use xlink:href="#DejaVuSans-30"/>
       <use x="63.623047" xlink:href="#DejaVuSans-2e"/>
       <use x="95.410156" xlink:href="#DejaVuSans-36"/>
       <use x="159.033203" xlink:href="#DejaVuSans-35"/>
      </g>
     </g>
    </g>
    <g id="xtick_21">
     <g id="line2d_18">
      <g>
       <use style="stroke:#000000;stroke-width:0.8;" x="1271.785625" xlink:href="#m0adb3e021b" y="374.274375"/>
      </g>
     </g>
     <g id="text_34">
      <!-- 0.70 -->
      <g transform="translate(1238.387188 404.069687)scale(0.3 -0.3)">
       <use xlink:href="#DejaVuSans-30"/>
       <use x="63.623047" xlink:href="#DejaVuSans-2e"/>
       <use x="95.410156" xlink:href="#DejaVuSans-37"/>
       <use x="159.033203" xlink:href="#DejaVuSans-30"/>
      </g>
     </g>
    </g>
    <g id="xtick_22">
     <g id="line2d_19">
      <g>
       <use style="stroke:#000000;stroke-width:0.8;" x="1374.80875" xlink:href="#m0adb3e021b" y="374.274375"/>
      </g>
     </g>
     <g id="text_35">
      <!-- 0.75 -->
      <g transform="translate(1341.410313 404.069687)scale(0.3 -0.3)">
       <use xlink:href="#DejaVuSans-30"/>
       <use x="63.623047" xlink:href="#DejaVuSans-2e"/>
       <use x="95.410156" xlink:href="#DejaVuSans-37"/>
       <use x="159.033203" xlink:href="#DejaVuSans-35"/>
      </g>
     </g>
    </g>
    <g id="xtick_23">
     <g id="line2d_20">
      <g>
       <use style="stroke:#000000;stroke-width:0.8;" x="1477.831875" xlink:href="#m0adb3e021b" y="374.274375"/>
      </g>
     </g>
     <g id="text_36">
      <!-- 0.80 -->
      <g transform="translate(1444.433438 404.069687)scale(0.3 -0.3)">
       <use xlink:href="#DejaVuSans-30"/>
       <use x="63.623047" xlink:href="#DejaVuSans-2e"/>
       <use x="95.410156" xlink:href="#DejaVuSans-38"/>
       <use x="159.033203" xlink:href="#DejaVuSans-30"/>
      </g>
     </g>
    </g>
    <g id="xtick_24">
     <g id="line2d_21">
      <g>
       <use style="stroke:#000000;stroke-width:0.8;" x="1580.855" xlink:href="#m0adb3e021b" y="374.274375"/>
      </g>
     </g>
     <g id="text_37">
      <!-- 0.85 -->
      <g transform="translate(1547.456563 404.069687)scale(0.3 -0.3)">
       <use xlink:href="#DejaVuSans-30"/>
       <use x="63.623047" xlink:href="#DejaVuSans-2e"/>
       <use x="95.410156" xlink:href="#DejaVuSans-38"/>
       <use x="159.033203" xlink:href="#DejaVuSans-35"/>
      </g>
     </g>
    </g>
    <g id="xtick_25">
     <g id="line2d_22">
      <g>
       <use style="stroke:#000000;stroke-width:0.8;" x="1683.878125" xlink:href="#m0adb3e021b" y="374.274375"/>
      </g>
     </g>
     <g id="text_38">
      <!-- 0.90 -->
      <g transform="translate(1650.479688 404.069687)scale(0.3 -0.3)">
       <use xlink:href="#DejaVuSans-30"/>
       <use x="63.623047" xlink:href="#DejaVuSans-2e"/>
       <use x="95.410156" xlink:href="#DejaVuSans-39"/>
       <use x="159.033203" xlink:href="#DejaVuSans-30"/>
      </g>
     </g>
    </g>
    <g id="xtick_26">
     <g id="line2d_23">
      <g>
       <use style="stroke:#000000;stroke-width:0.8;" x="1786.90125" xlink:href="#m0adb3e021b" y="374.274375"/>
      </g>
     </g>
     <g id="text_39">
      <!-- 0.95 -->
      <g transform="translate(1753.502813 404.069687)scale(0.3 -0.3)">
       <use xlink:href="#DejaVuSans-30"/>
       <use x="63.623047" xlink:href="#DejaVuSans-2e"/>
       <use x="95.410156" xlink:href="#DejaVuSans-39"/>
       <use x="159.033203" xlink:href="#DejaVuSans-35"/>
      </g>
     </g>
    </g>
    <g id="xtick_27">
     <g id="line2d_24">
      <g>
       <use style="stroke:#000000;stroke-width:0.8;" x="1889.924375" xlink:href="#m0adb3e021b" y="374.274375"/>
      </g>
     </g>
     <g id="text_40">
      <!-- 1.00 -->
      <g transform="translate(1856.525938 404.069687)scale(0.3 -0.3)">
       <use xlink:href="#DejaVuSans-31"/>
       <use x="63.623047" xlink:href="#DejaVuSans-2e"/>
       <use x="95.410156" xlink:href="#DejaVuSans-30"/>
       <use x="159.033203" xlink:href="#DejaVuSans-30"/>
      </g>
     </g>
    </g>
   </g>
   <g id="matplotlib.axis_6">
    <g id="ytick_11">
     <g id="line2d_25">
      <g>
       <use style="stroke:#000000;stroke-width:0.8;" x="1065.739375" xlink:href="#m7597a509db" y="364.397826"/>
      </g>
     </g>
     <g id="text_41">
      <!-- 0 -->
      <g transform="translate(1039.651875 375.795482)scale(0.3 -0.3)">
       <use xlink:href="#DejaVuSans-30"/>
      </g>
     </g>
    </g>
    <g id="ytick_12">
     <g id="line2d_26">
      <g>
       <use style="stroke:#000000;stroke-width:0.8;" x="1065.739375" xlink:href="#m7597a509db" y="286.936341"/>
      </g>
     </g>
     <g id="text_42">
      <!-- 1000 -->
      <g transform="translate(982.389375 298.333997)scale(0.3 -0.3)">
       <use xlink:href="#DejaVuSans-31"/>
       <use x="63.623047" xlink:href="#DejaVuSans-30"/>
       <use x="127.246094" xlink:href="#DejaVuSans-30"/>
       <use x="190.869141" xlink:href="#DejaVuSans-30"/>
      </g>
     </g>
    </g>
    <g id="ytick_13">
     <g id="line2d_27">
      <g>
       <use style="stroke:#000000;stroke-width:0.8;" x="1065.739375" xlink:href="#m7597a509db" y="209.474856"/>
      </g>
     </g>
     <g id="text_43">
      <!-- 2000 -->
      <g transform="translate(982.389375 220.872513)scale(0.3 -0.3)">
       <use xlink:href="#DejaVuSans-32"/>
       <use x="63.623047" xlink:href="#DejaVuSans-30"/>
       <use x="127.246094" xlink:href="#DejaVuSans-30"/>
       <use x="190.869141" xlink:href="#DejaVuSans-30"/>
      </g>
     </g>
    </g>
    <g id="ytick_14">
     <g id="line2d_28">
      <g>
       <use style="stroke:#000000;stroke-width:0.8;" x="1065.739375" xlink:href="#m7597a509db" y="132.013371"/>
      </g>
     </g>
     <g id="text_44">
      <!-- 3000 -->
      <g transform="translate(982.389375 143.411028)scale(0.3 -0.3)">
       <defs>
        <path d="M 2597 2516
Q 3050 2419 3304 2112
Q 3559 1806 3559 1356
Q 3559 666 3084 287
Q 2609 -91 1734 -91
Q 1441 -91 1130 -33
Q 819 25 488 141
L 488 750
Q 750 597 1062 519
Q 1375 441 1716 441
Q 2309 441 2620 675
Q 2931 909 2931 1356
Q 2931 1769 2642 2001
Q 2353 2234 1838 2234
L 1294 2234
L 1294 2753
L 1863 2753
Q 2328 2753 2575 2939
Q 2822 3125 2822 3475
Q 2822 3834 2567 4026
Q 2313 4219 1838 4219
Q 1578 4219 1281 4162
Q 984 4106 628 3988
L 628 4550
Q 988 4650 1302 4700
Q 1616 4750 1894 4750
Q 2613 4750 3031 4423
Q 3450 4097 3450 3541
Q 3450 3153 3228 2886
Q 3006 2619 2597 2516
z
" id="DejaVuSans-33" transform="scale(0.015625)"/>
       </defs>
       <use xlink:href="#DejaVuSans-33"/>
       <use x="63.623047" xlink:href="#DejaVuSans-30"/>
       <use x="127.246094" xlink:href="#DejaVuSans-30"/>
       <use x="190.869141" xlink:href="#DejaVuSans-30"/>
      </g>
     </g>
    </g>
    <g id="ytick_15">
     <g id="line2d_29">
      <g>
       <use style="stroke:#000000;stroke-width:0.8;" x="1065.739375" xlink:href="#m7597a509db" y="54.551887"/>
      </g>
     </g>
     <g id="text_45">
      <!-- 4000 -->
      <g transform="translate(982.389375 65.949543)scale(0.3 -0.3)">
       <use xlink:href="#DejaVuSans-34"/>
       <use x="63.623047" xlink:href="#DejaVuSans-30"/>
       <use x="127.246094" xlink:href="#DejaVuSans-30"/>
       <use x="190.869141" xlink:href="#DejaVuSans-30"/>
      </g>
     </g>
    </g>
   </g>
   <g id="line2d_30">
    <path clip-path="url(#p1624074a7d)" d="M 1065.739375 51.59983
L 1168.7625 52.602181
L 1271.785625 54.336544
L 1374.80875 57.304093
L 1477.831875 61.662076
L 1519.041125 64.222178
L 1560.250375 67.116914
L 1601.459625 70.487263
L 1642.668875 74.700394
L 1683.878125 79.733066
L 1704.48275 82.596817
L 1725.087375 85.881184
L 1745.692 89.464553
L 1766.296625 93.648247
L 1786.90125 98.345512
L 1807.505875 103.818166
L 1828.1105 110.61696
L 1848.715125 119.458414
L 1869.31975 132.627641
" style="fill:none;stroke:#1f77b4;stroke-linecap:square;stroke-width:1.5;"/>
    <g clip-path="url(#p1624074a7d)">
     <use style="fill:#1f77b4;stroke:#1f77b4;stroke-linejoin:miter;" x="1065.739375" xlink:href="#m4c76122796" y="51.59983"/>
     <use style="fill:#1f77b4;stroke:#1f77b4;stroke-linejoin:miter;" x="1168.7625" xlink:href="#m4c76122796" y="52.602181"/>
     <use style="fill:#1f77b4;stroke:#1f77b4;stroke-linejoin:miter;" x="1271.785625" xlink:href="#m4c76122796" y="54.336544"/>
     <use style="fill:#1f77b4;stroke:#1f77b4;stroke-linejoin:miter;" x="1374.80875" xlink:href="#m4c76122796" y="57.304093"/>
     <use style="fill:#1f77b4;stroke:#1f77b4;stroke-linejoin:miter;" x="1477.831875" xlink:href="#m4c76122796" y="61.662076"/>
     <use style="fill:#1f77b4;stroke:#1f77b4;stroke-linejoin:miter;" x="1519.041125" xlink:href="#m4c76122796" y="64.222178"/>
     <use style="fill:#1f77b4;stroke:#1f77b4;stroke-linejoin:miter;" x="1560.250375" xlink:href="#m4c76122796" y="67.116914"/>
     <use style="fill:#1f77b4;stroke:#1f77b4;stroke-linejoin:miter;" x="1601.459625" xlink:href="#m4c76122796" y="70.487263"/>
     <use style="fill:#1f77b4;stroke:#1f77b4;stroke-linejoin:miter;" x="1642.668875" xlink:href="#m4c76122796" y="74.700394"/>
     <use style="fill:#1f77b4;stroke:#1f77b4;stroke-linejoin:miter;" x="1683.878125" xlink:href="#m4c76122796" y="79.733066"/>
     <use style="fill:#1f77b4;stroke:#1f77b4;stroke-linejoin:miter;" x="1704.48275" xlink:href="#m4c76122796" y="82.596817"/>
     <use style="fill:#1f77b4;stroke:#1f77b4;stroke-linejoin:miter;" x="1725.087375" xlink:href="#m4c76122796" y="85.881184"/>
     <use style="fill:#1f77b4;stroke:#1f77b4;stroke-linejoin:miter;" x="1745.692" xlink:href="#m4c76122796" y="89.464553"/>
     <use style="fill:#1f77b4;stroke:#1f77b4;stroke-linejoin:miter;" x="1766.296625" xlink:href="#m4c76122796" y="93.648247"/>
     <use style="fill:#1f77b4;stroke:#1f77b4;stroke-linejoin:miter;" x="1786.90125" xlink:href="#m4c76122796" y="98.345512"/>
     <use style="fill:#1f77b4;stroke:#1f77b4;stroke-linejoin:miter;" x="1807.505875" xlink:href="#m4c76122796" y="103.818166"/>
     <use style="fill:#1f77b4;stroke:#1f77b4;stroke-linejoin:miter;" x="1828.1105" xlink:href="#m4c76122796" y="110.61696"/>
     <use style="fill:#1f77b4;stroke:#1f77b4;stroke-linejoin:miter;" x="1848.715125" xlink:href="#m4c76122796" y="119.458414"/>
     <use style="fill:#1f77b4;stroke:#1f77b4;stroke-linejoin:miter;" x="1869.31975" xlink:href="#m4c76122796" y="132.627641"/>
    </g>
   </g>
   <g id="line2d_31">
    <path clip-path="url(#p1624074a7d)" d="M 1065.739375 111.072434
L 1168.7625 112.815317
L 1271.785625 116.45988
L 1374.80875 123.12699
L 1477.831875 134.618401
L 1519.041125 141.046155
L 1560.250375 148.565342
L 1601.459625 157.935083
L 1642.668875 170.809956
L 1683.878125 185.409897
L 1704.48275 193.895028
L 1725.087375 204.54908
L 1745.692 215.918103
L 1766.296625 229.706247
L 1786.90125 245.527755
L 1807.505875 263.415161
L 1828.1105 286.497134
L 1848.715125 321.896491
L 1869.31975 358.90892
" style="fill:none;stroke:#ff7f0e;stroke-linecap:square;stroke-width:1.5;"/>
    <g clip-path="url(#p1624074a7d)">
     <use style="fill:#ff7f0e;stroke:#ff7f0e;" x="1065.739375" xlink:href="#m481ca7dbe0" y="111.072434"/>
     <use style="fill:#ff7f0e;stroke:#ff7f0e;" x="1168.7625" xlink:href="#m481ca7dbe0" y="112.815317"/>
     <use style="fill:#ff7f0e;stroke:#ff7f0e;" x="1271.785625" xlink:href="#m481ca7dbe0" y="116.45988"/>
     <use style="fill:#ff7f0e;stroke:#ff7f0e;" x="1374.80875" xlink:href="#m481ca7dbe0" y="123.12699"/>
     <use style="fill:#ff7f0e;stroke:#ff7f0e;" x="1477.831875" xlink:href="#m481ca7dbe0" y="134.618401"/>
     <use style="fill:#ff7f0e;stroke:#ff7f0e;" x="1519.041125" xlink:href="#m481ca7dbe0" y="141.046155"/>
     <use style="fill:#ff7f0e;stroke:#ff7f0e;" x="1560.250375" xlink:href="#m481ca7dbe0" y="148.565342"/>
     <use style="fill:#ff7f0e;stroke:#ff7f0e;" x="1601.459625" xlink:href="#m481ca7dbe0" y="157.935083"/>
     <use style="fill:#ff7f0e;stroke:#ff7f0e;" x="1642.668875" xlink:href="#m481ca7dbe0" y="170.809956"/>
     <use style="fill:#ff7f0e;stroke:#ff7f0e;" x="1683.878125" xlink:href="#m481ca7dbe0" y="185.409897"/>
     <use style="fill:#ff7f0e;stroke:#ff7f0e;" x="1704.48275" xlink:href="#m481ca7dbe0" y="193.895028"/>
     <use style="fill:#ff7f0e;stroke:#ff7f0e;" x="1725.087375" xlink:href="#m481ca7dbe0" y="204.54908"/>
     <use style="fill:#ff7f0e;stroke:#ff7f0e;" x="1745.692" xlink:href="#m481ca7dbe0" y="215.918103"/>
     <use style="fill:#ff7f0e;stroke:#ff7f0e;" x="1766.296625" xlink:href="#m481ca7dbe0" y="229.706247"/>
     <use style="fill:#ff7f0e;stroke:#ff7f0e;" x="1786.90125" xlink:href="#m481ca7dbe0" y="245.527755"/>
     <use style="fill:#ff7f0e;stroke:#ff7f0e;" x="1807.505875" xlink:href="#m481ca7dbe0" y="263.415161"/>
     <use style="fill:#ff7f0e;stroke:#ff7f0e;" x="1828.1105" xlink:href="#m481ca7dbe0" y="286.497134"/>
     <use style="fill:#ff7f0e;stroke:#ff7f0e;" x="1848.715125" xlink:href="#m481ca7dbe0" y="321.896491"/>
     <use style="fill:#ff7f0e;stroke:#ff7f0e;" x="1869.31975" xlink:href="#m481ca7dbe0" y="358.90892"/>
    </g>
   </g>
   <g id="patch_11">
    <path d="M 1065.739375 374.274375
L 1065.739375 36.234375
" style="fill:none;stroke:#000000;stroke-linecap:square;stroke-linejoin:miter;stroke-width:0.8;"/>
   </g>
   <g id="patch_12">
    <path d="M 1065.739375 374.274375
L 1889.924375 374.274375
" style="fill:none;stroke:#000000;stroke-linecap:square;stroke-linejoin:miter;stroke-width:0.8;"/>
   </g>
   <g id="text_46">
    <!-- Find rate (100% positive queries) -->
    <g transform="translate(1194.620156 29.995312)scale(0.3 -0.3)">
     <defs>
      <path d="M 588 4666
L 3834 4666
L 3834 3756
L 1791 3756
L 1791 2888
L 3713 2888
L 3713 1978
L 1791 1978
L 1791 0
L 588 0
L 588 4666
z
" id="DejaVuSans-Bold-46" transform="scale(0.015625)"/>
      <path d="M 2919 2988
L 2919 4863
L 4044 4863
L 4044 0
L 2919 0
L 2919 506
Q 2688 197 2409 53
Q 2131 -91 1766 -91
Q 1119 -91 703 423
Q 288 938 288 1747
Q 288 2556 703 3070
Q 1119 3584 1766 3584
Q 2128 3584 2408 3439
Q 2688 3294 2919 2988
z
M 2181 722
Q 2541 722 2730 984
Q 2919 1247 2919 1747
Q 2919 2247 2730 2509
Q 2541 2772 2181 2772
Q 1825 2772 1636 2509
Q 1447 2247 1447 1747
Q 1447 1247 1636 984
Q 1825 722 2181 722
z
" id="DejaVuSans-Bold-64" transform="scale(0.015625)"/>
      <path d="M 2413 -844
L 1484 -844
Q 1006 -72 778 623
Q 550 1319 550 2003
Q 550 2688 779 3389
Q 1009 4091 1484 4856
L 2413 4856
Q 2013 4116 1813 3408
Q 1613 2700 1613 2009
Q 1613 1319 1811 609
Q 2009 -100 2413 -844
z
" id="DejaVuSans-Bold-28" transform="scale(0.015625)"/>
      <path d="M 750 831
L 1813 831
L 1813 3847
L 722 3622
L 722 4441
L 1806 4666
L 2950 4666
L 2950 831
L 4013 831
L 4013 0
L 750 0
L 750 831
z
" id="DejaVuSans-Bold-31" transform="scale(0.015625)"/>
      <path d="M 2944 2338
Q 2944 3213 2780 3570
Q 2616 3928 2228 3928
Q 1841 3928 1675 3570
Q 1509 3213 1509 2338
Q 1509 1453 1675 1090
Q 1841 728 2228 728
Q 2613 728 2778 1090
Q 2944 1453 2944 2338
z
M 4147 2328
Q 4147 1169 3647 539
Q 3147 -91 2228 -91
Q 1306 -91 806 539
Q 306 1169 306 2328
Q 306 3491 806 4120
Q 1306 4750 2228 4750
Q 3147 4750 3647 4120
Q 4147 3491 4147 2328
z
" id="DejaVuSans-Bold-30" transform="scale(0.015625)"/>
      <path d="M 4959 1925
Q 4738 1925 4616 1733
Q 4494 1541 4494 1184
Q 4494 825 4614 633
Q 4734 441 4959 441
Q 5184 441 5303 633
Q 5422 825 5422 1184
Q 5422 1541 5301 1733
Q 5181 1925 4959 1925
z
M 4959 2450
Q 5541 2450 5875 2112
Q 6209 1775 6209 1184
Q 6209 594 5875 251
Q 5541 -91 4959 -91
Q 4378 -91 4042 251
Q 3706 594 3706 1184
Q 3706 1772 4042 2111
Q 4378 2450 4959 2450
z
M 2094 -91
L 1403 -91
L 4319 4750
L 5013 4750
L 2094 -91
z
M 1453 4750
Q 2034 4750 2367 4411
Q 2700 4072 2700 3481
Q 2700 2891 2367 2550
Q 2034 2209 1453 2209
Q 872 2209 539 2550
Q 206 2891 206 3481
Q 206 4072 539 4411
Q 872 4750 1453 4750
z
M 1453 4225
Q 1228 4225 1106 4031
Q 984 3838 984 3481
Q 984 3122 1106 2926
Q 1228 2731 1453 2731
Q 1678 2731 1798 2926
Q 1919 3122 1919 3481
Q 1919 3838 1797 4031
Q 1675 4225 1453 4225
z
" id="DejaVuSans-Bold-25" transform="scale(0.015625)"/>
      <path d="M 1656 506
L 1656 -1331
L 538 -1331
L 538 3500
L 1656 3500
L 1656 2988
Q 1888 3294 2169 3439
Q 2450 3584 2816 3584
Q 3463 3584 3878 3070
Q 4294 2556 4294 1747
Q 4294 938 3878 423
Q 3463 -91 2816 -91
Q 2450 -91 2169 54
Q 1888 200 1656 506
z
M 2400 2772
Q 2041 2772 1848 2508
Q 1656 2244 1656 1747
Q 1656 1250 1848 986
Q 2041 722 2400 722
Q 2759 722 2948 984
Q 3138 1247 3138 1747
Q 3138 2247 2948 2509
Q 2759 2772 2400 2772
z
" id="DejaVuSans-Bold-70" transform="scale(0.015625)"/>
      <path d="M 97 3500
L 1216 3500
L 2088 1081
L 2956 3500
L 4078 3500
L 2700 0
L 1472 0
L 97 3500
z
" id="DejaVuSans-Bold-76" transform="scale(0.015625)"/>
      <path d="M 2181 2772
Q 1825 2772 1636 2509
Q 1447 2247 1447 1747
Q 1447 1247 1636 984
Q 1825 722 2181 722
Q 2541 722 2730 984
Q 2919 1247 2919 1747
Q 2919 2247 2730 2509
Q 2541 2772 2181 2772
z
M 2919 506
Q 2688 197 2409 53
Q 2131 -91 1766 -91
Q 1119 -91 703 423
Q 288 938 288 1747
Q 288 2556 703 3067
Q 1119 3578 1766 3578
Q 2131 3578 2409 3434
Q 2688 3291 2919 2981
L 2919 3500
L 4044 3500
L 4044 -1331
L 2919 -1331
L 2919 506
z
" id="DejaVuSans-Bold-71" transform="scale(0.015625)"/>
      <path d="M 500 1363
L 500 3500
L 1625 3500
L 1625 3150
Q 1625 2866 1622 2436
Q 1619 2006 1619 1863
Q 1619 1441 1641 1255
Q 1663 1069 1716 984
Q 1784 875 1895 815
Q 2006 756 2150 756
Q 2500 756 2700 1025
Q 2900 1294 2900 1772
L 2900 3500
L 4019 3500
L 4019 0
L 2900 0
L 2900 506
Q 2647 200 2364 54
Q 2081 -91 1741 -91
Q 1134 -91 817 281
Q 500 653 500 1363
z
" id="DejaVuSans-Bold-75" transform="scale(0.015625)"/>
      <path d="M 513 -844
Q 913 -100 1113 609
Q 1313 1319 1313 2009
Q 1313 2700 1113 3408
Q 913 4116 513 4856
L 1441 4856
Q 1916 4091 2145 3389
Q 2375 2688 2375 2003
Q 2375 1319 2147 623
Q 1919 -72 1441 -844
L 513 -844
z
" id="DejaVuSans-Bold-29" transform="scale(0.015625)"/>
     </defs>
     <use xlink:href="#DejaVuSans-Bold-46"/>
     <use x="68.310547" xlink:href="#DejaVuSans-Bold-69"/>
     <use x="102.587891" xlink:href="#DejaVuSans-Bold-6e"/>
     <use x="173.779297" xlink:href="#DejaVuSans-Bold-64"/>
     <use x="245.361328" xlink:href="#DejaVuSans-Bold-20"/>
     <use x="280.175781" xlink:href="#DejaVuSans-Bold-72"/>
     <use x="329.492188" xlink:href="#DejaVuSans-Bold-61"/>
     <use x="396.972656" xlink:href="#DejaVuSans-Bold-74"/>
     <use x="444.775391" xlink:href="#DejaVuSans-Bold-65"/>
     <use x="512.597656" xlink:href="#DejaVuSans-Bold-20"/>
     <use x="547.412109" xlink:href="#DejaVuSans-Bold-28"/>
     <use x="593.115234" xlink:href="#DejaVuSans-Bold-31"/>
     <use x="662.695312" xlink:href="#DejaVuSans-Bold-30"/>
     <use x="732.275391" xlink:href="#DejaVuSans-Bold-30"/>
     <use x="801.855469" xlink:href="#DejaVuSans-Bold-25"/>
     <use x="902.050781" xlink:href="#DejaVuSans-Bold-20"/>
     <use x="936.865234" xlink:href="#DejaVuSans-Bold-70"/>
     <use x="1008.447266" xlink:href="#DejaVuSans-Bold-6f"/>
     <use x="1077.148438" xlink:href="#DejaVuSans-Bold-73"/>
     <use x="1136.669922" xlink:href="#DejaVuSans-Bold-69"/>
     <use x="1170.947266" xlink:href="#DejaVuSans-Bold-74"/>
     <use x="1218.75" xlink:href="#DejaVuSans-Bold-69"/>
     <use x="1253.027344" xlink:href="#DejaVuSans-Bold-76"/>
     <use x="1318.212891" xlink:href="#DejaVuSans-Bold-65"/>
     <use x="1386.035156" xlink:href="#DejaVuSans-Bold-20"/>
     <use x="1420.849609" xlink:href="#DejaVuSans-Bold-71"/>
     <use x="1492.431641" xlink:href="#DejaVuSans-Bold-75"/>
     <use x="1563.623047" xlink:href="#DejaVuSans-Bold-65"/>
     <use x="1631.445312" xlink:href="#DejaVuSans-Bold-72"/>
     <use x="1680.761719" xlink:href="#DejaVuSans-Bold-69"/>
     <use x="1715.039062" xlink:href="#DejaVuSans-Bold-65"/>
     <use x="1782.861328" xlink:href="#DejaVuSans-Bold-73"/>
     <use x="1842.382812" xlink:href="#DejaVuSans-Bold-29"/>
    </g>
   </g>
  </g>
  <g id="legend_1">
   <g id="patch_13">
    <path d="M 1107.47375 350.3775
L 1735.364375 350.3775
Q 1741.364375 350.3775 1741.364375 344.3775
L 1741.364375 258.474375
Q 1741.364375 252.474375 1735.364375 252.474375
L 1107.47375 252.474375
Q 1101.47375 252.474375 1101.47375 258.474375
L 1101.47375 344.3775
Q 1101.47375 350.3775 1107.47375 350.3775
z
" style="fill:#ffffff;opacity:0.8;stroke:#cccccc;stroke-linejoin:miter;"/>
   </g>
   <g id="line2d_32">
    <path d="M 1113.47375 276.769687
L 1173.47375 276.769687
" style="fill:none;stroke:#1f77b4;stroke-linecap:square;stroke-width:1.5;"/>
   </g>
   <g id="line2d_33">
    <g>
     <use style="fill:#1f77b4;stroke:#1f77b4;stroke-linejoin:miter;" x="1143.47375" xlink:href="#m4c76122796" y="276.769687"/>
    </g>
   </g>
   <g id="text_47">
    <!-- BCHT, B=16 (default configuration) -->
    <g transform="translate(1197.47375 287.269687)scale(0.3 -0.3)">
     <defs>
      <path d="M 1259 2228
L 1259 519
L 2272 519
Q 2781 519 3026 730
Q 3272 941 3272 1375
Q 3272 1813 3026 2020
Q 2781 2228 2272 2228
L 1259 2228
z
M 1259 4147
L 1259 2741
L 2194 2741
Q 2656 2741 2882 2914
Q 3109 3088 3109 3444
Q 3109 3797 2882 3972
Q 2656 4147 2194 4147
L 1259 4147
z
M 628 4666
L 2241 4666
Q 2963 4666 3353 4366
Q 3744 4066 3744 3513
Q 3744 3084 3544 2831
Q 3344 2578 2956 2516
Q 3422 2416 3680 2098
Q 3938 1781 3938 1306
Q 3938 681 3513 340
Q 3088 0 2303 0
L 628 0
L 628 4666
z
" id="DejaVuSans-42" transform="scale(0.015625)"/>
      <path d="M 4122 4306
L 4122 3641
Q 3803 3938 3442 4084
Q 3081 4231 2675 4231
Q 1875 4231 1450 3742
Q 1025 3253 1025 2328
Q 1025 1406 1450 917
Q 1875 428 2675 428
Q 3081 428 3442 575
Q 3803 722 4122 1019
L 4122 359
Q 3791 134 3420 21
Q 3050 -91 2638 -91
Q 1578 -91 968 557
Q 359 1206 359 2328
Q 359 3453 968 4101
Q 1578 4750 2638 4750
Q 3056 4750 3426 4639
Q 3797 4528 4122 4306
z
" id="DejaVuSans-43" transform="scale(0.015625)"/>
      <path d="M 628 4666
L 1259 4666
L 1259 2753
L 3553 2753
L 3553 4666
L 4184 4666
L 4184 0
L 3553 0
L 3553 2222
L 1259 2222
L 1259 0
L 628 0
L 628 4666
z
" id="DejaVuSans-48" transform="scale(0.015625)"/>
      <path d="M -19 4666
L 3928 4666
L 3928 4134
L 2272 4134
L 2272 0
L 1638 0
L 1638 4134
L -19 4134
L -19 4666
z
" id="DejaVuSans-54" transform="scale(0.015625)"/>
      <path d="M 750 794
L 1409 794
L 1409 256
L 897 -744
L 494 -744
L 750 256
L 750 794
z
" id="DejaVuSans-2c" transform="scale(0.015625)"/>
      <path d="M 678 2906
L 4684 2906
L 4684 2381
L 678 2381
L 678 2906
z
M 678 1631
L 4684 1631
L 4684 1100
L 678 1100
L 678 1631
z
" id="DejaVuSans-3d" transform="scale(0.015625)"/>
      <path d="M 544 1381
L 544 3500
L 1119 3500
L 1119 1403
Q 1119 906 1312 657
Q 1506 409 1894 409
Q 2359 409 2629 706
Q 2900 1003 2900 1516
L 2900 3500
L 3475 3500
L 3475 0
L 2900 0
L 2900 538
Q 2691 219 2414 64
Q 2138 -91 1772 -91
Q 1169 -91 856 284
Q 544 659 544 1381
z
M 1991 3584
L 1991 3584
z
" id="DejaVuSans-75" transform="scale(0.015625)"/>
      <path d="M 603 4863
L 1178 4863
L 1178 0
L 603 0
L 603 4863
z
" id="DejaVuSans-6c" transform="scale(0.015625)"/>
      <path d="M 2906 1791
Q 2906 2416 2648 2759
Q 2391 3103 1925 3103
Q 1463 3103 1205 2759
Q 947 2416 947 1791
Q 947 1169 1205 825
Q 1463 481 1925 481
Q 2391 481 2648 825
Q 2906 1169 2906 1791
z
M 3481 434
Q 3481 -459 3084 -895
Q 2688 -1331 1869 -1331
Q 1566 -1331 1297 -1286
Q 1028 -1241 775 -1147
L 775 -588
Q 1028 -725 1275 -790
Q 1522 -856 1778 -856
Q 2344 -856 2625 -561
Q 2906 -266 2906 331
L 2906 616
Q 2728 306 2450 153
Q 2172 0 1784 0
Q 1141 0 747 490
Q 353 981 353 1791
Q 353 2603 747 3093
Q 1141 3584 1784 3584
Q 2172 3584 2450 3431
Q 2728 3278 2906 2969
L 2906 3500
L 3481 3500
L 3481 434
z
" id="DejaVuSans-67" transform="scale(0.015625)"/>
     </defs>
     <use xlink:href="#DejaVuSans-42"/>
     <use x="66.853516" xlink:href="#DejaVuSans-43"/>
     <use x="136.677734" xlink:href="#DejaVuSans-48"/>
     <use x="211.873047" xlink:href="#DejaVuSans-54"/>
     <use x="272.957031" xlink:href="#DejaVuSans-2c"/>
     <use x="304.744141" xlink:href="#DejaVuSans-20"/>
     <use x="336.53125" xlink:href="#DejaVuSans-42"/>
     <use x="405.134766" xlink:href="#DejaVuSans-3d"/>
     <use x="488.923828" xlink:href="#DejaVuSans-31"/>
     <use x="552.546875" xlink:href="#DejaVuSans-36"/>
     <use x="616.169922" xlink:href="#DejaVuSans-20"/>
     <use x="647.957031" xlink:href="#DejaVuSans-28"/>
     <use x="686.970703" xlink:href="#DejaVuSans-64"/>
     <use x="750.447266" xlink:href="#DejaVuSans-65"/>
     <use x="811.970703" xlink:href="#DejaVuSans-66"/>
     <use x="847.175781" xlink:href="#DejaVuSans-61"/>
     <use x="908.455078" xlink:href="#DejaVuSans-75"/>
     <use x="971.833984" xlink:href="#DejaVuSans-6c"/>
     <use x="999.617188" xlink:href="#DejaVuSans-74"/>
     <use x="1038.826172" xlink:href="#DejaVuSans-20"/>
     <use x="1070.613281" xlink:href="#DejaVuSans-63"/>
     <use x="1125.59375" xlink:href="#DejaVuSans-6f"/>
     <use x="1186.775391" xlink:href="#DejaVuSans-6e"/>
     <use x="1250.154297" xlink:href="#DejaVuSans-66"/>
     <use x="1285.359375" xlink:href="#DejaVuSans-69"/>
     <use x="1313.142578" xlink:href="#DejaVuSans-67"/>
     <use x="1376.619141" xlink:href="#DejaVuSans-75"/>
     <use x="1439.998047" xlink:href="#DejaVuSans-72"/>
     <use x="1481.111328" xlink:href="#DejaVuSans-61"/>
     <use x="1542.390625" xlink:href="#DejaVuSans-74"/>
     <use x="1581.599609" xlink:href="#DejaVuSans-69"/>
     <use x="1609.382812" xlink:href="#DejaVuSans-6f"/>
     <use x="1670.564453" xlink:href="#DejaVuSans-6e"/>
     <use x="1733.943359" xlink:href="#DejaVuSans-29"/>
    </g>
   </g>
   <g id="line2d_34">
    <path d="M 1113.47375 320.804062
L 1173.47375 320.804062
" style="fill:none;stroke:#ff7f0e;stroke-linecap:square;stroke-width:1.5;"/>
   </g>
   <g id="line2d_35">
    <g>
     <use style="fill:#ff7f0e;stroke:#ff7f0e;" x="1143.47375" xlink:href="#m481ca7dbe0" y="320.804062"/>
    </g>
   </g>
   <g id="text_48">
    <!-- cuco::static_map -->
    <g transform="translate(1197.47375 331.304062)scale(0.3 -0.3)">
     <defs>
      <path d="M 750 794
L 1409 794
L 1409 0
L 750 0
L 750 794
z
M 750 3309
L 1409 3309
L 1409 2516
L 750 2516
L 750 3309
z
" id="DejaVuSans-3a" transform="scale(0.015625)"/>
      <path d="M 3263 -1063
L 3263 -1509
L -63 -1509
L -63 -1063
L 3263 -1063
z
" id="DejaVuSans-5f" transform="scale(0.015625)"/>
      <path d="M 3328 2828
Q 3544 3216 3844 3400
Q 4144 3584 4550 3584
Q 5097 3584 5394 3201
Q 5691 2819 5691 2113
L 5691 0
L 5113 0
L 5113 2094
Q 5113 2597 4934 2840
Q 4756 3084 4391 3084
Q 3944 3084 3684 2787
Q 3425 2491 3425 1978
L 3425 0
L 2847 0
L 2847 2094
Q 2847 2600 2669 2842
Q 2491 3084 2119 3084
Q 1678 3084 1418 2786
Q 1159 2488 1159 1978
L 1159 0
L 581 0
L 581 3500
L 1159 3500
L 1159 2956
Q 1356 3278 1631 3431
Q 1906 3584 2284 3584
Q 2666 3584 2933 3390
Q 3200 3197 3328 2828
z
" id="DejaVuSans-6d" transform="scale(0.015625)"/>
     </defs>
     <use xlink:href="#DejaVuSans-63"/>
     <use x="54.980469" xlink:href="#DejaVuSans-75"/>
     <use x="118.359375" xlink:href="#DejaVuSans-63"/>
     <use x="173.339844" xlink:href="#DejaVuSans-6f"/>
     <use x="234.521484" xlink:href="#DejaVuSans-3a"/>
     <use x="268.212891" xlink:href="#DejaVuSans-3a"/>
     <use x="301.904297" xlink:href="#DejaVuSans-73"/>
     <use x="354.003906" xlink:href="#DejaVuSans-74"/>
     <use x="393.212891" xlink:href="#DejaVuSans-61"/>
     <use x="454.492188" xlink:href="#DejaVuSans-74"/>
     <use x="493.701172" xlink:href="#DejaVuSans-69"/>
     <use x="521.484375" xlink:href="#DejaVuSans-63"/>
     <use x="576.464844" xlink:href="#DejaVuSans-5f"/>
     <use x="626.464844" xlink:href="#DejaVuSans-6d"/>
     <use x="723.876953" xlink:href="#DejaVuSans-61"/>
     <use x="785.15625" xlink:href="#DejaVuSans-70"/>
    </g>
   </g>
  </g>
 </g>
 <defs>
  <clipPath id="p82ebcb167e">
   <rect height="338.04" width="824.185" x="123.584375" y="36.234375"/>
  </clipPath>
  <clipPath id="p1624074a7d">
   <rect height="338.04" width="824.185" x="1065.739375" y="36.234375"/>
  </clipPath>
 </defs>
</svg>
